<?xml version="1.0" encoding="utf-8"?>
<!-- Generator: Adobe Illustrator 16.0.0, SVG Export Plug-In . SVG Version: 6.00 Build 0)  -->
<!DOCTYPE svg PUBLIC "-//W3C//DTD SVG 1.1//EN" "http://www.w3.org/Graphics/SVG/1.1/DTD/svg11.dtd">
<svg version="1.1" id="Layer_1" xmlns="http://www.w3.org/2000/svg" xmlns:xlink="http://www.w3.org/1999/xlink" x="0px" y="0px"
	 width="347.275px" height="55.781px" viewBox="25.568 21.336 347.275 55.781"
	 enable-background="new 25.568 21.336 347.275 55.781" xml:space="preserve">
<g enable-background="new    ">
	<path fill="#F15A22" d="M30.139,42.723l-4.57-2.666l29.326-18.721l29.326,18.721l-4.6,2.666l-24.727-15.82L30.139,42.723z
		 M30.139,52.742l-4.57-2.666l29.326-18.721l29.326,18.721l-4.6,2.666l-24.727-15.82L30.139,52.742z M84.221,60.125L54.895,77.117
		L25.568,60.125l29.326-18.721L84.221,60.125z M54.895,46.971L34.592,59.92l20.303,11.807L75.197,59.92L54.895,46.971z"/>
</g>
<g enable-background="new    ">
	<path fill="#F15B24" d="M106.927,60.42c0.72,1.48,1.71,2.661,2.97,3.54c1.26,0.88,2.75,1.511,4.47,1.89
		c1.719,0.381,3.56,0.57,5.52,0.57c1.119,0,2.34-0.159,3.66-0.479c1.32-0.32,2.55-0.83,3.69-1.53c1.14-0.699,2.09-1.6,2.85-2.7
		c0.759-1.1,1.14-2.43,1.14-3.99c0-1.2-0.27-2.239-0.81-3.12c-0.54-0.879-1.24-1.619-2.1-2.22c-0.86-0.6-1.81-1.089-2.85-1.47
		c-1.041-0.38-2.061-0.69-3.06-0.93l-9.54-2.341c-1.241-0.319-2.451-0.72-3.63-1.199c-1.18-0.48-2.21-1.12-3.09-1.921
		c-0.88-0.799-1.59-1.779-2.13-2.939s-0.81-2.58-0.81-4.26c0-1.04,0.2-2.26,0.6-3.66c0.399-1.399,1.149-2.72,2.25-3.96
		c1.1-1.239,2.61-2.29,4.53-3.15c1.92-0.859,4.38-1.29,7.38-1.29c2.12,0,4.14,0.28,6.06,0.84c1.92,0.561,3.6,1.401,5.04,2.521
		c1.44,1.12,2.589,2.511,3.45,4.17c0.859,1.66,1.29,3.591,1.29,5.79h-4.08c-0.081-1.64-0.45-3.069-1.11-4.29
		c-0.66-1.22-1.521-2.239-2.58-3.06c-1.061-0.82-2.28-1.44-3.66-1.86s-2.83-0.63-4.35-0.63c-1.4,0-2.75,0.149-4.05,0.45
		c-1.3,0.3-2.44,0.779-3.42,1.439c-0.981,0.66-1.77,1.53-2.37,2.61s-0.9,2.42-0.9,4.02c0,1.001,0.169,1.87,0.51,2.61
		c0.339,0.74,0.81,1.37,1.41,1.89c0.6,0.521,1.29,0.94,2.07,1.26c0.78,0.321,1.61,0.581,2.49,0.78l10.44,2.58
		c1.52,0.4,2.949,0.891,4.29,1.47c1.34,0.581,2.52,1.301,3.54,2.16c1.02,0.861,1.819,1.911,2.4,3.15c0.58,1.24,0.87,2.74,0.87,4.5
		c0,0.479-0.051,1.12-0.15,1.92c-0.101,0.801-0.34,1.65-0.72,2.55c-0.381,0.9-0.92,1.811-1.62,2.73c-0.7,0.92-1.66,1.75-2.88,2.489
		c-1.221,0.741-2.73,1.341-4.53,1.801c-1.8,0.459-3.96,0.689-6.48,0.689c-2.52,0-4.86-0.29-7.02-0.87c-2.16-0.579-4-1.47-5.52-2.67
		c-1.521-1.2-2.691-2.739-3.51-4.62c-0.82-1.879-1.17-4.14-1.05-6.779h4.08C105.867,57.101,106.207,58.94,106.927,60.42z"/>
	<path fill="#F15B24" d="M153.366,38.04v3.18h-6.3V62.1c0,1.24,0.169,2.211,0.51,2.91c0.339,0.7,1.19,1.091,2.55,1.17
		c1.08,0,2.16-0.06,3.24-0.18v3.18c-0.561,0-1.12,0.02-1.68,0.061c-0.561,0.039-1.121,0.06-1.68,0.06c-2.52,0-4.281-0.489-5.28-1.47
		c-1-0.979-1.48-2.79-1.44-5.43V41.22h-5.4v-3.18h5.4v-9.3h3.78v9.3H153.366z"/>
	<path fill="#F15B24" d="M159.605,42.84c0.64-1.32,1.509-2.399,2.61-3.24c1.1-0.84,2.39-1.459,3.87-1.859
		c1.479-0.399,3.12-0.601,4.92-0.601c1.359,0,2.72,0.131,4.08,0.391c1.359,0.261,2.58,0.75,3.66,1.47s1.959,1.73,2.64,3.03
		c0.68,1.3,1.02,2.99,1.02,5.069v16.44c0,1.521,0.74,2.28,2.22,2.28c0.44,0,0.84-0.08,1.2-0.24v3.18
		c-0.441,0.081-0.831,0.141-1.17,0.181c-0.34,0.04-0.771,0.06-1.29,0.06c-0.96,0-1.731-0.129-2.31-0.39
		c-0.581-0.26-1.03-0.63-1.35-1.11c-0.321-0.48-0.531-1.05-0.63-1.71c-0.101-0.66-0.15-1.39-0.15-2.19h-0.12
		c-0.681,1.001-1.371,1.891-2.07,2.67c-0.7,0.78-1.48,1.431-2.34,1.95c-0.86,0.521-1.84,0.92-2.94,1.2
		c-1.101,0.279-2.41,0.42-3.93,0.42c-1.44,0-2.79-0.171-4.05-0.51c-1.26-0.34-2.361-0.88-3.3-1.62c-0.94-0.739-1.68-1.68-2.22-2.82
		c-0.54-1.14-0.81-2.489-0.81-4.05c0-2.16,0.48-3.85,1.44-5.07c0.96-1.219,2.229-2.149,3.81-2.789c1.58-0.64,3.36-1.09,5.34-1.351
		c1.98-0.26,3.99-0.51,6.03-0.75c0.8-0.079,1.5-0.18,2.1-0.3s1.1-0.33,1.5-0.63c0.399-0.3,0.709-0.71,0.93-1.23
		c0.22-0.52,0.33-1.2,0.33-2.04c0-1.279-0.21-2.329-0.63-3.149c-0.42-0.819-1-1.471-1.74-1.95c-0.74-0.48-1.6-0.811-2.58-0.99
		c-0.981-0.18-2.031-0.27-3.15-0.27c-2.4,0-4.36,0.569-5.88,1.71c-1.521,1.14-2.32,2.97-2.4,5.489h-3.78
		C158.585,45.72,158.965,44.16,159.605,42.84z M178.505,52.08c-0.24,0.44-0.7,0.76-1.38,0.96c-0.681,0.2-1.281,0.34-1.8,0.42
		c-1.601,0.28-3.25,0.53-4.95,0.75c-1.701,0.221-3.25,0.551-4.65,0.99c-1.4,0.44-2.55,1.07-3.45,1.89c-0.9,0.82-1.35,1.99-1.35,3.51
		c0,0.96,0.189,1.811,0.57,2.551c0.38,0.74,0.89,1.38,1.53,1.92c0.64,0.54,1.38,0.95,2.22,1.229c0.84,0.28,1.7,0.42,2.58,0.42
		c1.44,0,2.82-0.219,4.14-0.66c1.32-0.439,2.469-1.079,3.45-1.92c0.98-0.84,1.76-1.859,2.34-3.06c0.58-1.2,0.87-2.56,0.87-4.08
		v-4.92H178.505z"/>
	<path fill="#F15B24" d="M208.926,42.3c-1.4-1.319-3.359-1.979-5.88-1.979c-1.8,0-3.381,0.38-4.74,1.14
		c-1.36,0.761-2.49,1.761-3.39,3c-0.9,1.24-1.581,2.65-2.04,4.23c-0.46,1.58-0.69,3.189-0.69,4.829c0,1.641,0.23,3.251,0.69,4.83
		c0.459,1.581,1.14,2.991,2.04,4.23c0.9,1.24,2.03,2.24,3.39,3c1.359,0.76,2.94,1.14,4.74,1.14c1.159,0,2.259-0.219,3.3-0.66
		c1.039-0.439,1.959-1.05,2.76-1.829c0.8-0.78,1.46-1.711,1.98-2.79c0.52-1.08,0.84-2.26,0.96-3.54h3.78
		c-0.521,3.76-1.9,6.689-4.141,8.79c-2.24,2.1-5.121,3.149-8.64,3.149c-2.36,0-4.451-0.43-6.27-1.29
		c-1.821-0.859-3.351-2.029-4.59-3.51c-1.24-1.479-2.181-3.21-2.82-5.19c-0.64-1.979-0.96-4.089-0.96-6.33
		c0-2.239,0.32-4.35,0.96-6.329c0.639-1.98,1.58-3.71,2.82-5.19c1.24-1.479,2.77-2.66,4.59-3.54c1.819-0.879,3.91-1.32,6.27-1.32
		c3.319,0,6.13,0.881,8.43,2.641c2.3,1.761,3.669,4.42,4.11,7.979h-3.78C211.285,45.44,210.325,43.62,208.926,42.3z"/>
	<path fill="#F15B24" d="M224.885,26.16v26.88l17.16-15h5.041L233.885,49.5L247.985,69h-4.739l-12.24-16.86l-6.121,5.101V69h-3.779
		V26.16H224.885z"/>
	<path fill="#F15B24" d="M255.905,26.16V65.52h24V69h-28.08V26.16H255.905z"/>
	<path fill="#F15B24" d="M286.115,58.77c0.379,1.461,0.989,2.771,1.83,3.931c0.84,1.16,1.898,2.12,3.18,2.88
		c1.279,0.76,2.82,1.14,4.619,1.14c2.76,0,4.92-0.72,6.48-2.16c1.561-1.439,2.641-3.359,3.24-5.76h3.779
		c-0.801,3.521-2.27,6.24-4.41,8.16c-2.14,1.92-5.17,2.88-9.09,2.88c-2.439,0-4.551-0.43-6.33-1.29
		c-1.779-0.859-3.23-2.04-4.35-3.54c-1.12-1.5-1.949-3.24-2.49-5.22c-0.539-1.98-0.81-4.069-0.81-6.271c0-2.039,0.271-4.039,0.81-6
		c0.541-1.959,1.37-3.709,2.49-5.25c1.119-1.539,2.57-2.779,4.35-3.72c1.779-0.939,3.891-1.41,6.33-1.41c2.48,0,4.6,0.501,6.36,1.5
		c1.76,1.001,3.189,2.311,4.29,3.931c1.1,1.62,1.891,3.479,2.37,5.58c0.479,2.1,0.68,4.229,0.601,6.39h-23.82
		C285.545,55.9,285.734,57.311,286.115,58.77z M304.834,47.22c-0.459-1.319-1.109-2.489-1.949-3.51
		c-0.84-1.02-1.86-1.839-3.061-2.46c-1.199-0.62-2.561-0.93-4.08-0.93c-1.56,0-2.939,0.31-4.14,0.93c-1.2,0.621-2.22,1.44-3.06,2.46
		c-0.84,1.021-1.511,2.2-2.01,3.54c-0.501,1.341-0.831,2.71-0.99,4.11h20.039C305.545,49.92,305.294,48.54,304.834,47.22z"/>
	<path fill="#F15B24" d="M315.244,42.84c0.64-1.32,1.51-2.399,2.61-3.24c1.1-0.84,2.39-1.459,3.87-1.859
		c1.479-0.399,3.119-0.601,4.92-0.601c1.359,0,2.719,0.131,4.08,0.391c1.359,0.261,2.58,0.75,3.66,1.47s1.959,1.73,2.64,3.03
		c0.68,1.3,1.021,2.99,1.021,5.069v16.44c0,1.521,0.739,2.28,2.219,2.28c0.44,0,0.841-0.08,1.201-0.24v3.18
		c-0.441,0.081-0.831,0.141-1.17,0.181c-0.341,0.04-0.771,0.06-1.291,0.06c-0.959,0-1.73-0.129-2.31-0.39
		c-0.581-0.26-1.03-0.63-1.351-1.11s-0.53-1.05-0.629-1.71c-0.102-0.66-0.15-1.39-0.15-2.19h-0.12
		c-0.681,1.001-1.37,1.891-2.07,2.67c-0.7,0.78-1.479,1.431-2.34,1.95c-0.86,0.521-1.841,0.92-2.94,1.2
		c-1.1,0.279-2.41,0.42-3.93,0.42c-1.439,0-2.79-0.171-4.05-0.51c-1.26-0.34-2.36-0.88-3.3-1.62c-0.94-0.739-1.68-1.68-2.221-2.82
		c-0.539-1.14-0.81-2.489-0.81-4.05c0-2.16,0.479-3.85,1.44-5.07c0.959-1.219,2.229-2.149,3.81-2.789
		c1.579-0.64,3.36-1.09,5.34-1.351c1.98-0.26,3.99-0.51,6.03-0.75c0.8-0.079,1.5-0.18,2.1-0.3c0.601-0.12,1.1-0.33,1.5-0.63
		s0.71-0.71,0.93-1.23c0.221-0.52,0.33-1.2,0.33-2.04c0-1.279-0.209-2.329-0.629-3.149c-0.42-0.819-1.001-1.471-1.74-1.95
		c-0.74-0.48-1.601-0.811-2.58-0.99c-0.98-0.18-2.031-0.27-3.15-0.27c-2.4,0-4.36,0.569-5.88,1.71
		c-1.521,1.14-2.32,2.97-2.399,5.489h-3.78C314.225,45.72,314.604,44.16,315.244,42.84z M334.145,52.08
		c-0.24,0.44-0.701,0.76-1.381,0.96s-1.28,0.34-1.799,0.42c-1.602,0.28-3.251,0.53-4.951,0.75c-1.7,0.221-3.25,0.551-4.649,0.99
		c-1.4,0.44-2.55,1.07-3.45,1.89c-0.9,0.82-1.35,1.99-1.35,3.51c0,0.96,0.189,1.811,0.57,2.551c0.379,0.74,0.889,1.38,1.529,1.92
		c0.64,0.54,1.381,0.95,2.221,1.229c0.84,0.28,1.699,0.42,2.58,0.42c1.439,0,2.819-0.219,4.14-0.66
		c1.319-0.439,2.47-1.079,3.45-1.92c0.979-0.84,1.76-1.859,2.34-3.06c0.579-1.2,0.869-2.56,0.869-4.08v-4.92H334.145z"/>
	<path fill="#F15B24" d="M369.364,69v-5.88h-0.12c-0.4,1-0.99,1.92-1.77,2.76c-0.78,0.84-1.671,1.551-2.67,2.13
		c-1,0.58-2.07,1.029-3.211,1.351c-1.139,0.319-2.27,0.479-3.389,0.479c-2.361,0-4.41-0.43-6.15-1.29
		c-1.74-0.859-3.19-2.04-4.35-3.54c-1.161-1.5-2.021-3.24-2.58-5.22c-0.561-1.98-0.841-4.069-0.841-6.271
		c0-2.199,0.28-4.289,0.841-6.27c0.559-1.98,1.419-3.72,2.58-5.22c1.159-1.5,2.609-2.69,4.35-3.57c1.74-0.879,3.789-1.32,6.15-1.32
		c1.159,0,2.289,0.141,3.389,0.42c1.1,0.28,2.131,0.711,3.091,1.29c0.96,0.581,1.81,1.29,2.55,2.131c0.74,0.84,1.31,1.82,1.71,2.939
		h0.12V26.16h3.779V69H369.364z M348.635,58.29c0.379,1.581,0.979,2.99,1.8,4.229c0.819,1.241,1.869,2.25,3.149,3.03
		s2.82,1.17,4.621,1.17c1.999,0,3.689-0.39,5.069-1.17s2.499-1.789,3.36-3.03c0.859-1.239,1.479-2.648,1.859-4.229
		c0.38-1.58,0.57-3.17,0.57-4.771c0-1.599-0.19-3.188-0.57-4.77c-0.381-1.58-1-2.989-1.859-4.23c-0.861-1.239-1.98-2.25-3.36-3.029
		c-1.38-0.78-3.07-1.17-5.069-1.17c-1.801,0-3.341,0.39-4.621,1.17c-1.28,0.779-2.33,1.79-3.149,3.029
		c-0.82,1.241-1.421,2.65-1.8,4.23c-0.381,1.581-0.57,3.171-0.57,4.77C348.064,55.12,348.254,56.71,348.635,58.29z"/>
</g>
</svg>
